<svg xmlns="http://www.w3.org/2000/svg" width="32" height="32"><path fill-rule="evenodd" d="M16.164 3a.5.5 0 0 0-.004.002.5.5 0 0 0-.01 0 .5.5 0 0 0-.17.043L4.422 7.988a.5.5 0 0 0-.422.5V23.49a.5.5 0 0 0 .043.207.5.5 0 0 0 .002.006.5.5 0 0 0 .014.027.5.5 0 0 0 .255.239l11.567 4.945a.5.5 0 0 0 .293.094.5.5 0 0 0 .328-.098l11.56-4.941a.5.5 0 0 0 .307-.395.5.5 0 0 0 .004-.027.5.5 0 0 0 .002-.024.5.5 0 0 0 0-.025.5.5 0 0 0 0-.008V8.488a.5.5 0 0 0-.414-.498L16.406 3.05a.5.5 0 0 0-.011-.005.5.5 0 0 0-.082-.027.5.5 0 0 0-.014-.004.5.5 0 0 0-.035-.008.5.5 0 0 0-.014-.002.5.5 0 0 0-.037-.002.5.5 0 0 0-.049-.002zm.023 1.045 2.45 1.047L8.25 9.535a.5.5 0 0 0-.03.014L5.769 8.5l10.42-4.455zm3.723 1.592 2.973 1.271-10.58 4.526a.5.5 0 0 0-.301.51.5.5 0 0 0-.002.058v5.35l-1.084-1.627a.5.5 0 0 0-.639-.17L9 16.193v-5.89l10.91-4.666zm4.244 1.814L26.607 8.5l-10.42 4.455-2.45-1.047 10.388-4.443a.5.5 0 0 0 .03-.014zM5 9.258l3 1.283v6.461a.5.5 0 0 0 .723.447l1.605-.803 1.729 2.592a.5.5 0 0 0 .002.004.5.5 0 0 0 .252.227.5.5 0 0 0 .002.002.5.5 0 0 0 .044.015.5.5 0 0 0 .092.02.5.5 0 0 0 .059.002.5.5 0 0 0 .058-.004.5.5 0 0 0 .041-.008.5.5 0 0 0 .03-.008.5.5 0 0 0 .025-.008.5.5 0 0 0 .082-.035.5.5 0 0 0 .002-.002.5.5 0 0 0 .254-.502v-6.26l2.688 1.15v13.915L5 23.174V9.258zm22.375.002v13.914l-10.688 4.572V13.83l10.688-4.57z" color="#000" font-family="sans-serif" font-weight="400" overflow="visible" style="line-height:normal;text-indent:0;text-align:start;text-decoration-line:none;text-decoration-style:solid;text-decoration-color:#000;text-transform:none;block-progression:tb;white-space:normal;isolation:auto;mix-blend-mode:normal;solid-color:#000;solid-opacity:1"/></svg>