<?xml version="1.0" encoding="UTF-8" standalone="no"?>
<!-- Created with Inkscape (http://www.inkscape.org/) -->

<svg
   width="803.75952"
   height="60.300003"
   viewBox="0 0 212.66137 15.954376"
   version="1.1"
   id="svg5"
   inkscape:version="1.2.2 (b0a8486541, 2022-12-01)"
   sodipodi:docname="mail_lix.inkscape.svg"
   inkscape:export-filename="mail_lix.svg"
   inkscape:export-xdpi="120.95238"
   inkscape:export-ydpi="120.95238"
   xmlns:inkscape="http://www.inkscape.org/namespaces/inkscape"
   xmlns:sodipodi="http://sodipodi.sourceforge.net/DTD/sodipodi-0.dtd"
   xmlns="http://www.w3.org/2000/svg"
   xmlns:svg="http://www.w3.org/2000/svg">
  <sodipodi:namedview
     id="namedview7"
     pagecolor="#ffffff"
     bordercolor="#000000"
     borderopacity="0.25"
     inkscape:showpageshadow="2"
     inkscape:pageopacity="0.0"
     inkscape:pagecheckerboard="false"
     inkscape:deskcolor="#d1d1d1"
     inkscape:document-units="mm"
     showgrid="false"
     inkscape:zoom="0.63168253"
     inkscape:cx="672.80632"
     inkscape:cy="272.28868"
     inkscape:window-width="1920"
     inkscape:window-height="1011"
     inkscape:window-x="0"
     inkscape:window-y="0"
     inkscape:window-maximized="1"
     inkscape:current-layer="layer1" />
  <defs
     id="defs2" />
  <g
     inkscape:label="Layer 1"
     inkscape:groupmode="layer"
     id="layer1"
     transform="translate(-3,-3)">
    <g
       id="text236"
       style="font-size:15.875px;font-family:'Lobster Two';-inkscape-font-specification:'Lobster Two';fill:#565656;stroke:#000000;stroke-width:4.99999"
       inkscape:label="text236">
      <path
         d="m 4.381125,9.3817498 q 0,0.254 -0.03175,0.6667502 -0.015875,0.41275 -0.03175,0.714375 h 0.0635 q 0.09525,-0.127 0.28575,-0.365125 0.1905,-0.238125 0.381,-0.4762502 0.206375,-0.254 0.34925,-0.41275 L 8.11175,6.6353748 H 9.746875 L 6.302,10.27075 9.985,15.144375 H 8.30225 L 5.3495,11.175625 4.381125,12.017 v 3.127375 H 3 V 3.0793748 h 1.381125 z"
         style="-inkscape-font-specification:'sans-serif, Normal';stroke:none;stroke-width:5"
         id="path2904" />
      <path
         d="m 12.874257,15.144375 h -1.397 V 3.0793748 h 1.397 z"
         style="-inkscape-font-specification:'sans-serif, Normal';stroke:none;stroke-width:5"
         id="path2906" />
      <path
         d="m 22.684998,6.6353748 v 8.5090002 h -1.143 L 21.335623,14.01725 h -0.0635 q -0.41275,0.66675 -1.143,0.98425 -0.73025,0.301625 -1.55575,0.301625 -1.539875,0 -2.31775,-0.73025 Q 15.477748,13.82675 15.477748,12.2075 V 6.6353748 h 1.412875 V 12.11225 q 0,2.032 1.889125,2.032 1.412875,0 1.952625,-0.79375 0.555625,-0.79375 0.555625,-2.286 V 6.6353748 Z"
         style="-inkscape-font-specification:'sans-serif, Normal';stroke:none;stroke-width:5"
         id="path2908" />
      <path
         d="m 34.718249,6.4766248 q 1.444625,0 2.159,0.746125 0.714375,0.73025 0.714375,2.38125 V 15.144375 H 36.210499 V 9.6674998 q 0,-2.016125 -1.730375,-2.016125 -1.23825,0 -1.778,0.714375 -0.523875,0.714375 -0.523875,2.0796252 v 4.699 H 30.797124 V 9.6674998 q 0,-2.016125 -1.74625,-2.016125 -1.285875,0 -1.778,0.79375 -0.492125,0.79375 -0.492125,2.2860002 v 4.41325 h -1.397 V 6.6353748 h 1.127125 l 0.206375,1.158875 h 0.07938 q 0.396875,-0.66675 1.063625,-0.98425 0.682625,-0.333375 1.444625,-0.333375 2.00025,0 2.6035,1.42875 h 0.07938 q 0.428625,-0.73025 1.158875,-1.0795 0.746125,-0.34925 1.571625,-0.34925 z"
         style="-inkscape-font-specification:'sans-serif, Normal';stroke:none;stroke-width:5"
         id="path2910" />
      <path
         d="m 44.274989,6.4766248 q 1.571625,0 2.524125,1.095375 0.968375,1.095375 0.968375,3.3020002 0,2.174875 -0.968375,3.302 -0.9525,1.127125 -2.54,1.127125 -0.98425,0 -1.635125,-0.365125 -0.635,-0.381 -1.000125,-0.873125 h -0.09525 q 0.03175,0.269875 0.0635,0.682625 0.03175,0.41275 0.03175,0.714375 v 3.4925 h -1.397 V 6.6353748 h 1.143 l 0.1905,1.158875 h 0.0635 q 0.381,-0.555625 1.000125,-0.936625 0.619125,-0.381 1.651,-0.381 z m -0.254,1.17475 q -1.30175,0 -1.8415,0.73025 -0.523875,0.73025 -0.555625,2.2225002 V 10.874 q 0,1.571625 0.508,2.428875 0.523875,0.841375 1.920875,0.841375 0.777875,0 1.27,-0.428625 0.508,-0.428625 0.746125,-1.158875 0.254,-0.746125 0.254,-1.698625 0,-1.4605002 -0.5715,-2.3336252 -0.555625,-0.873125 -1.730375,-0.873125 z"
         style="-inkscape-font-specification:'sans-serif, Normal';stroke:none;stroke-width:5"
         id="path2912" />
      <path
         d="m 54.038111,6.4766248 q 1.571625,0 2.524125,1.095375 0.968375,1.095375 0.968375,3.3020002 0,2.174875 -0.968375,3.302 -0.9525,1.127125 -2.54,1.127125 -0.98425,0 -1.635125,-0.365125 -0.635,-0.381 -1.000125,-0.873125 h -0.09525 q 0.03175,0.269875 0.0635,0.682625 0.03175,0.41275 0.03175,0.714375 v 3.4925 h -1.397 V 6.6353748 h 1.143 l 0.1905,1.158875 h 0.0635 q 0.381,-0.555625 1.000125,-0.936625 0.619125,-0.381 1.651,-0.381 z m -0.254,1.17475 q -1.30175,0 -1.8415,0.73025 -0.523875,0.73025 -0.555625,2.2225002 V 10.874 q 0,1.571625 0.508,2.428875 0.523875,0.841375 1.920875,0.841375 0.777875,0 1.27,-0.428625 0.508,-0.428625 0.746125,-1.158875 0.254,-0.746125 0.254,-1.698625 0,-1.4605002 -0.5715,-2.3336252 -0.555625,-0.873125 -1.730375,-0.873125 z"
         style="-inkscape-font-specification:'sans-serif, Normal';stroke:none;stroke-width:5"
         id="path2914" />
      <path
         d="m 71.754609,9.4769998 q 0,0.7302502 -0.174625,1.4287502 -0.15875,0.6985 -0.508,1.27 -0.34925,0.555625 -0.85725,0.904875 -0.508,0.333375 -1.2065,0.333375 -0.73025,0 -1.158875,-0.41275 -0.41275,-0.428625 -0.508,-0.968375 h -0.07937 q -0.28575,0.587375 -0.841375,0.98425 -0.555625,0.396875 -1.397,0.396875 -1.2065,0 -1.87325,-0.809625 -0.650875,-0.809625 -0.650875,-2.143125 0,-1.0477502 0.41275,-1.8415002 0.41275,-0.809625 1.158875,-1.27 0.762,-0.460375 1.793875,-0.460375 0.6985,0 1.36525,0.127 0.682625,0.111125 1.063625,0.254 L 68.135109,10.493 q -0.01587,0.28575 -0.01587,0.41275 0,0.111125 0,0.15875 0,0.8255 0.28575,1.095375 0.301625,0.269875 0.6985,0.269875 0.492125,0 0.8255,-0.396875 0.34925,-0.41275 0.523875,-1.0795 0.1905,-0.682625 0.1905,-1.4922502 0,-1.476375 -0.60325,-2.492375 -0.587375,-1.031875 -1.635125,-1.571625 -1.031875,-0.53975 -2.3495,-0.53975 -1.80975,0 -3.063875,0.746125 -1.23825,0.746125 -1.889125,2.06375 -0.635,1.30175 -0.635,2.9845002 0,2.3495 1.23825,3.603625 1.23825,1.254125 3.571875,1.254125 0.968375,0 1.8415,-0.22225 0.889,-0.206375 1.571625,-0.460375 v 1.0795 q -0.682625,0.28575 -1.539875,0.460375 -0.841375,0.1905 -1.87325,0.1905 -1.87325,0 -3.20675,-0.6985 -1.3335,-0.6985 -2.047875,-2.00025 -0.6985,-1.317625 -0.6985,-3.159125 0,-1.4763752 0.460375,-2.7305002 0.460375,-1.27 1.3335,-2.19075 0.873125,-0.936625 2.111375,-1.444625 1.254125,-0.523875 2.82575,-0.523875 1.651,0 2.936875,0.682625 1.285875,0.682625 2.016125,1.952625 0.746125,1.27 0.746125,3.032125 z M 63.737734,10.493 q 0,1.016 0.396875,1.476375 0.41275,0.460375 1.095375,0.460375 0.889,0 1.27,-0.66675 0.396875,-0.66675 0.460375,-1.730375 l 0.09525,-1.9843752 q -0.206375,-0.0635 -0.523875,-0.111125 -0.3175,-0.047625 -0.650875,-0.047625 -0.777875,0 -1.254125,0.381 -0.47625,0.381 -0.682625,0.98425 -0.206375,0.587375 -0.206375,1.2382502 z"
         style="-inkscape-font-specification:'sans-serif, Normal';stroke:none;stroke-width:5"
         id="path2916" />
      <path
         d="m 75.421734,15.144375 h -1.397 V 3.0793748 h 1.397 z"
         style="-inkscape-font-specification:'sans-serif, Normal';stroke:none;stroke-width:5"
         id="path2918" />
      <path
         d="m 78.834851,3.4444998 q 0.3175,0 0.555625,0.22225 0.254,0.206375 0.254,0.66675 0,0.4445 -0.254,0.66675 -0.238125,0.22225 -0.555625,0.22225 -0.34925,0 -0.587375,-0.22225 -0.238125,-0.22225 -0.238125,-0.66675 0,-0.460375 0.238125,-0.66675 0.238125,-0.22225 0.587375,-0.22225 z m 0.682625,3.190875 v 8.5090002 h -1.397 V 6.6353748 Z"
         style="-inkscape-font-specification:'sans-serif, Normal';stroke:none;stroke-width:5"
         id="path2920" />
      <path
         d="M 84.232342,10.794625 81.295467,6.6353748 h 1.5875 l 2.19075,3.20675 2.174875,-3.20675 h 1.571625 l -2.936875,4.1592502 3.095625,4.34975 h -1.5875 l -2.31775,-3.39725 -2.3495,3.39725 h -1.571625 z"
         style="-inkscape-font-specification:'sans-serif, Normal';stroke:none;stroke-width:5"
         id="path2922" />
      <path
         d="m 90.407707,14.287125 q 0,-0.587375 0.28575,-0.8255 0.28575,-0.238125 0.682625,-0.238125 0.41275,0 0.6985,0.238125 0.301625,0.238125 0.301625,0.8255 0,0.5715 -0.301625,0.8255 -0.28575,0.254 -0.6985,0.254 -0.396875,0 -0.682625,-0.254 -0.28575,-0.254 -0.28575,-0.8255 z"
         style="-inkscape-font-specification:'sans-serif, Normal';stroke:none;stroke-width:5"
         id="path2924" />
      <path
         d="m 98.916701,6.4766248 q 1.571629,0 2.524129,1.095375 0.96837,1.095375 0.96837,3.3020002 0,2.174875 -0.96837,3.302 -0.9525,1.127125 -2.540004,1.127125 -0.98425,0 -1.635125,-0.365125 -0.635,-0.381 -1.000125,-0.873125 h -0.09525 q 0.03175,0.269875 0.0635,0.682625 0.03175,0.41275 0.03175,0.714375 v 3.4925 h -1.397 V 6.6353748 h 1.143 l 0.1905,1.158875 h 0.0635 q 0.381,-0.555625 1.000125,-0.936625 0.619125,-0.381 1.651,-0.381 z m -0.254,1.17475 q -1.30175,0 -1.8415,0.73025 -0.523875,0.73025 -0.555625,2.2225002 V 10.874 q 0,1.571625 0.508,2.428875 0.523875,0.841375 1.920875,0.841375 0.777875,0 1.27,-0.428625 0.507999,-0.428625 0.746129,-1.158875 0.254,-0.746125 0.254,-1.698625 0,-1.4605002 -0.5715,-2.3336252 -0.555629,-0.873125 -1.730379,-0.873125 z"
         style="-inkscape-font-specification:'sans-serif, Normal';stroke:none;stroke-width:5"
         id="path2926" />
      <path
         d="m 112.02945,10.874 q 0,2.111375 -1.0795,3.27025 -1.06363,1.158875 -2.88925,1.158875 -1.12713,0 -2.01613,-0.508 -0.87312,-0.523875 -1.38112,-1.508125 -0.508,-1.000125 -0.508,-2.413 0,-2.1113752 1.06362,-3.2543752 1.06363,-1.143 2.88925,-1.143 1.15888,0 2.032,0.523875 0.889,0.508 1.38113,1.49225 0.508,0.968375 0.508,2.3812502 z m -6.42938,0 q 0,1.508125 0.58738,2.397125 0.60325,0.873125 1.905,0.873125 1.28587,0 1.88912,-0.873125 0.60325,-0.889 0.60325,-2.397125 0,-1.5081252 -0.60325,-2.3653752 -0.60325,-0.85725 -1.905,-0.85725 -1.30175,0 -1.88912,0.85725 -0.58738,0.85725 -0.58738,2.3653752 z"
         style="-inkscape-font-specification:'sans-serif, Normal';stroke:none;stroke-width:5"
         id="path2928" />
      <path
         d="m 115.63307,15.144375 h -1.397 V 3.0793748 h 1.397 z"
         style="-inkscape-font-specification:'sans-serif, Normal';stroke:none;stroke-width:5"
         id="path2930" />
      <path
         d="m 116.99831,6.6353748 h 1.49225 l 1.8415,4.8418752 q 0.23812,0.635 0.42862,1.222375 0.1905,0.5715 0.28575,1.095375 h 0.0635 q 0.0952,-0.396875 0.30163,-1.031875 0.20637,-0.650875 0.42862,-1.30175 l 1.73038,-4.8260002 h 1.50812 l -3.66712,9.6837502 q -0.4445,1.2065 -1.15888,1.920875 -0.6985,0.714375 -1.93675,0.714375 -0.381,0 -0.66675,-0.04763 -0.28575,-0.03175 -0.49212,-0.07937 v -1.11125 q 0.17462,0.03175 0.41275,0.0635 0.254,0.03175 0.52387,0.03175 0.73025,0 1.17475,-0.41275 0.46038,-0.41275 0.71438,-1.095375 l 0.4445,-1.127125 z"
         style="-inkscape-font-specification:'sans-serif, Normal';stroke:none;stroke-width:5"
         id="path2932" />
      <path
         d="m 129.26969,14.160125 q 0.3175,0 0.65087,-0.04763 0.33338,-0.0635 0.53975,-0.127 v 1.063625 q -0.22225,0.111125 -0.635,0.174625 -0.41275,0.07937 -0.79375,0.07937 -0.66675,0 -1.23825,-0.22225 -0.55562,-0.238125 -0.90487,-0.809625 -0.34925,-0.5715 -0.34925,-1.603375 V 7.7148748 h -1.2065 v -0.66675 l 1.22237,-0.555625 0.55563,-1.80975 h 0.8255 v 1.952625 h 2.46062 v 1.0795 h -2.46062 v 4.9212502 q 0,0.777875 0.36512,1.158875 0.381,0.365125 0.96838,0.365125 z"
         style="-inkscape-font-specification:'sans-serif, Normal';stroke:none;stroke-width:5"
         id="path2934" />
      <path
         d="m 135.44506,6.4766248 q 1.09538,0 1.87325,0.47625 0.79375,0.47625 1.2065,1.349375 0.42863,0.85725 0.42863,2.0161252 v 0.841375 h -5.82613 q 0.0318,1.444625 0.73025,2.206625 0.71438,0.746125 1.98438,0.746125 0.80962,0 1.42875,-0.142875 0.635,-0.15875 1.30175,-0.4445 V 14.7475 q -0.65088,0.28575 -1.28588,0.41275 -0.635,0.142875 -1.50812,0.142875 -1.2065,0 -2.14313,-0.492125 -0.92075,-0.492125 -1.44462,-1.4605 -0.508,-0.98425 -0.508,-2.397125 0,-1.3970002 0.46037,-2.3971252 0.47625,-1.000125 1.31763,-1.539875 0.85725,-0.53975 1.98437,-0.53975 z m -0.0159,1.143 q -1.00013,0 -1.5875,0.650875 -0.5715,0.635 -0.68263,1.7780002 h 4.33388 q -0.0159,-1.0795002 -0.508,-1.7462502 -0.49213,-0.682625 -1.55575,-0.682625 z"
         style="-inkscape-font-specification:'sans-serif, Normal';stroke:none;stroke-width:5"
         id="path2936" />
      <path
         d="m 144.52555,15.303125 q -1.12712,0 -2.01612,-0.460375 -0.87313,-0.460375 -1.38113,-1.42875 -0.49212,-0.968375 -0.49212,-2.4765 0,-1.5716252 0.52387,-2.5558752 0.52388,-0.98425 1.41288,-1.444625 0.90487,-0.460375 2.04787,-0.460375 0.65088,0 1.25413,0.142875 0.60325,0.127 0.98425,0.3175 l -0.42863,1.158875 q -0.381,-0.142875 -0.889,-0.269875 -0.508,-0.127 -0.9525,-0.127 -2.50825,0 -2.50825,3.2226252 0,1.539875 0.60325,2.365375 0.61913,0.809625 1.82563,0.809625 0.6985,0 1.22237,-0.142875 0.53975,-0.142875 0.98425,-0.34925 v 1.23825 q -0.42862,0.22225 -0.9525,0.333375 -0.508,0.127 -1.23825,0.127 z"
         style="-inkscape-font-specification:'sans-serif, Normal';stroke:none;stroke-width:5"
         id="path2938" />
      <path
         d="m 150.12942,6.6194998 q 0,0.635 -0.0794,1.190625 h 0.0952 q 0.41275,-0.650875 1.11125,-0.98425 0.71437,-0.333375 1.53987,-0.333375 1.55575,0 2.33363,0.746125 0.77787,0.73025 0.77787,2.365375 V 15.144375 H 154.5268 V 9.6992498 q 0,-2.047875 -1.905,-2.047875 -1.42875,0 -1.9685,0.809625 -0.52388,0.79375 -0.52388,2.2860002 v 4.397375 h -1.397 V 3.0793748 h 1.397 z"
         style="-inkscape-font-specification:'sans-serif, Normal';stroke:none;stroke-width:5"
         id="path2940" />
      <path
         d="m 162.63892,6.4766248 q 1.524,0 2.30187,0.746125 0.77788,0.73025 0.77788,2.38125 v 5.5403752 h -1.38113 V 9.6992498 q 0,-2.047875 -1.905,-2.047875 -1.41287,0 -1.95262,0.79375 -0.53975,0.79375 -0.53975,2.2860002 v 4.41325 h -1.397 V 6.6353748 h 1.12712 l 0.20638,1.158875 h 0.0794 q 0.41275,-0.66675 1.143,-0.98425 0.73025,-0.333375 1.53988,-0.333375 z"
         style="-inkscape-font-specification:'sans-serif, Normal';stroke:none;stroke-width:5"
         id="path2942" />
      <path
         d="m 169.06829,3.4444998 q 0.3175,0 0.55562,0.22225 0.254,0.206375 0.254,0.66675 0,0.4445 -0.254,0.66675 -0.23812,0.22225 -0.55562,0.22225 -0.34925,0 -0.58738,-0.22225 -0.23812,-0.22225 -0.23812,-0.66675 0,-0.460375 0.23812,-0.66675 0.23813,-0.22225 0.58738,-0.22225 z m 0.68262,3.190875 v 8.5090002 h -1.397 V 6.6353748 Z"
         style="-inkscape-font-specification:'sans-serif, Normal';stroke:none;stroke-width:5"
         id="path2944" />
      <path
         d="m 178.11704,15.319 q 0,-0.28575 0.0159,-0.66675 0.0159,-0.381 0.0635,-0.650875 h -0.0952 q -0.36512,0.53975 -1.016,0.92075 -0.635,0.381 -1.651,0.381 -1.53987,0 -2.50825,-1.095375 -0.9525,-1.11125 -0.9525,-3.302 0,-2.1907502 0.96838,-3.3020002 0.98425,-1.127125 2.54,-1.127125 1.00012,0 1.63512,0.381 0.635,0.381 1.016,0.936625 h 0.0635 l 0.20638,-1.158875 h 1.11125 V 18.954375 h -1.397 z m -2.413,-1.17475 q 1.31762,0 1.85737,-0.714375 0.55563,-0.73025 0.5715,-2.2225 v -0.28575 q 0,-1.6192502 -0.53975,-2.4447502 -0.53975,-0.841375 -1.92087,-0.841375 -1.143,0 -1.69863,0.904875 -0.55562,0.889 -0.55562,2.3971252 0,1.508125 0.55562,2.365375 0.5715,0.841375 1.73038,0.841375 z"
         style="-inkscape-font-specification:'sans-serif, Normal';stroke:none;stroke-width:5"
         id="path2946" />
      <path
         d="m 189.32478,6.6353748 v 8.5090002 h -1.143 l -0.20637,-1.127125 h -0.0635 q -0.41275,0.66675 -1.143,0.98425 -0.73025,0.301625 -1.55575,0.301625 -1.53988,0 -2.31775,-0.73025 -0.77788,-0.746125 -0.77788,-2.365375 V 6.6353748 h 1.41288 V 12.11225 q 0,2.032 1.88912,2.032 1.41288,0 1.95263,-0.79375 0.55562,-0.79375 0.55562,-2.286 V 6.6353748 Z"
         style="-inkscape-font-specification:'sans-serif, Normal';stroke:none;stroke-width:5"
         id="path2948" />
      <path
         d="m 195.30965,6.4766248 q 1.09538,0 1.87325,0.47625 0.79375,0.47625 1.2065,1.349375 0.42863,0.85725 0.42863,2.0161252 v 0.841375 h -5.82613 q 0.0318,1.444625 0.73025,2.206625 0.71438,0.746125 1.98438,0.746125 0.80962,0 1.42875,-0.142875 0.635,-0.15875 1.30175,-0.4445 V 14.7475 q -0.65088,0.28575 -1.28588,0.41275 -0.635,0.142875 -1.50812,0.142875 -1.2065,0 -2.14313,-0.492125 -0.92075,-0.492125 -1.44462,-1.4605 -0.508,-0.98425 -0.508,-2.397125 0,-1.3970002 0.46037,-2.3971252 0.47625,-1.000125 1.31763,-1.539875 0.85725,-0.53975 1.98437,-0.53975 z m -0.0159,1.143 q -1.00013,0 -1.5875,0.650875 -0.5715,0.635 -0.68263,1.7780002 h 4.33388 q -0.0159,-1.0795002 -0.508,-1.7462502 -0.49213,-0.682625 -1.55575,-0.682625 z"
         style="-inkscape-font-specification:'sans-serif, Normal';stroke:none;stroke-width:5"
         id="path2950" />
      <path
         d="m 200.77065,14.287125 q 0,-0.587375 0.28575,-0.8255 0.28575,-0.238125 0.68262,-0.238125 0.41275,0 0.6985,0.238125 0.30163,0.238125 0.30163,0.8255 0,0.5715 -0.30163,0.8255 -0.28575,0.254 -0.6985,0.254 -0.39687,0 -0.68262,-0.254 -0.28575,-0.254 -0.28575,-0.8255 z"
         style="-inkscape-font-specification:'sans-serif, Normal';stroke:none;stroke-width:5"
         id="path2952" />
      <path
         d="m 209.15263,7.7148748 h -2.14312 v 7.4295002 h -1.397 V 7.7148748 h -1.49225 v -0.650875 l 1.49225,-0.47625 v -0.492125 q 0,-1.651 0.73025,-2.365375 0.73025,-0.73025 2.032,-0.73025 0.508,0 0.92075,0.09525 0.42862,0.079375 0.73025,0.1905 l -0.36513,1.095375 q -0.254,-0.079375 -0.58737,-0.15875 -0.33338,-0.079375 -0.68263,-0.079375 -0.6985,0 -1.04775,0.47625 -0.33337,0.460375 -0.33337,1.4605 v 0.555625 h 2.14312 z"
         style="-inkscape-font-specification:'sans-serif, Normal';stroke:none;stroke-width:5"
         id="path2954" />
      <path
         d="m 214.66125,6.4766248 q 0.23813,0 0.508,0.03175 0.28575,0.015875 0.49213,0.0635 l -0.17463,1.285875 q -0.20637,-0.047625 -0.46037,-0.079375 -0.23813,-0.03175 -0.46038,-0.03175 -0.65087,0 -1.22237,0.365125 -0.5715,0.34925 -0.92075,1.000125 -0.33338,0.635 -0.33338,1.4922502 v 4.54025 h -1.397 V 6.6353748 h 1.143 l 0.15875,1.55575 h 0.0635 q 0.41275,-0.6985 1.06363,-1.2065 0.65087,-0.508 1.53987,-0.508 z"
         style="-inkscape-font-specification:'sans-serif, Normal';stroke:none;stroke-width:5"
         id="path2956" />
    </g>
  </g>
</svg>
