<?xml version="1.0" encoding="UTF-8" standalone="no"?>
<!-- Created with Inkscape (http://www.inkscape.org/) -->

<svg
   width="993.95972"
   height="60.300003"
   viewBox="0 0 262.98516 15.954376"
   version="1.1"
   id="svg5"
   sodipodi:docname="mail_ufr.inkscape.svg"
   inkscape:version="1.2.2 (b0a8486541, 2022-12-01)"
   xmlns:inkscape="http://www.inkscape.org/namespaces/inkscape"
   xmlns:sodipodi="http://sodipodi.sourceforge.net/DTD/sodipodi-0.dtd"
   xmlns="http://www.w3.org/2000/svg"
   xmlns:svg="http://www.w3.org/2000/svg">
  <sodipodi:namedview
     id="namedview7"
     pagecolor="#ffffff"
     bordercolor="#000000"
     borderopacity="0.25"
     inkscape:showpageshadow="2"
     inkscape:pageopacity="0.0"
     inkscape:pagecheckerboard="false"
     inkscape:deskcolor="#d1d1d1"
     inkscape:document-units="mm"
     showgrid="false"
     inkscape:zoom="0.63168253"
     inkscape:cx="672.80632"
     inkscape:cy="272.28868"
     inkscape:window-width="1920"
     inkscape:window-height="1011"
     inkscape:window-x="0"
     inkscape:window-y="0"
     inkscape:window-maximized="1"
     inkscape:current-layer="layer1" />
  <defs
     id="defs2" />
  <g
     inkscape:label="Layer 1"
     inkscape:groupmode="layer"
     id="layer1"
     transform="translate(-3,-3)">
    <g
       id="text236"
       style="font-size:15.875px;line-height:0;font-family:'Lobster Two';-inkscape-font-specification:'Lobster Two';fill:#565656;stroke:#000000;stroke-width:4.99999"
       inkscape:label="text236">
      <path
         d="m 4.381125,9.3817498 q 0,0.254 -0.03175,0.6667502 -0.015875,0.41275 -0.03175,0.714375 h 0.0635 q 0.09525,-0.127 0.28575,-0.365125 0.1905,-0.238125 0.381,-0.4762502 0.206375,-0.254 0.34925,-0.41275 L 8.11175,6.6353748 H 9.746875 L 6.302,10.27075 9.985,15.144375 H 8.30225 L 5.3495,11.175625 4.381125,12.017 v 3.127375 H 3 V 3.0793748 h 1.381125 z"
         style="font-family:sans-serif;-inkscape-font-specification:'sans-serif, Normal';stroke:none;stroke-width:5"
         id="path4979" />
      <path
         d="m 12.874257,15.144375 h -1.397 V 3.0793748 h 1.397 z"
         style="font-family:sans-serif;-inkscape-font-specification:'sans-serif, Normal';stroke:none;stroke-width:5"
         id="path4981" />
      <path
         d="m 22.684998,6.6353748 v 8.5090002 h -1.143 L 21.335623,14.01725 h -0.0635 q -0.41275,0.66675 -1.143,0.98425 -0.73025,0.301625 -1.55575,0.301625 -1.539875,0 -2.31775,-0.73025 Q 15.477748,13.82675 15.477748,12.2075 V 6.6353748 h 1.412875 V 12.11225 q 0,2.032 1.889125,2.032 1.412875,0 1.952625,-0.79375 0.555625,-0.79375 0.555625,-2.286 V 6.6353748 Z"
         style="font-family:sans-serif;-inkscape-font-specification:'sans-serif, Normal';stroke:none;stroke-width:5"
         id="path4983" />
      <path
         d="m 34.718249,6.4766248 q 1.444625,0 2.159,0.746125 0.714375,0.73025 0.714375,2.38125 V 15.144375 H 36.210499 V 9.6674998 q 0,-2.016125 -1.730375,-2.016125 -1.23825,0 -1.778,0.714375 -0.523875,0.714375 -0.523875,2.0796252 v 4.699 H 30.797124 V 9.6674998 q 0,-2.016125 -1.74625,-2.016125 -1.285875,0 -1.778,0.79375 -0.492125,0.79375 -0.492125,2.2860002 v 4.41325 h -1.397 V 6.6353748 h 1.127125 l 0.206375,1.158875 h 0.07938 q 0.396875,-0.66675 1.063625,-0.98425 0.682625,-0.333375 1.444625,-0.333375 2.00025,0 2.6035,1.42875 h 0.07938 q 0.428625,-0.73025 1.158875,-1.0795 0.746125,-0.34925 1.571625,-0.34925 z"
         style="font-family:sans-serif;-inkscape-font-specification:'sans-serif, Normal';stroke:none;stroke-width:5"
         id="path4985" />
      <path
         d="m 44.274989,6.4766248 q 1.571625,0 2.524125,1.095375 0.968375,1.095375 0.968375,3.3020002 0,2.174875 -0.968375,3.302 -0.9525,1.127125 -2.54,1.127125 -0.98425,0 -1.635125,-0.365125 -0.635,-0.381 -1.000125,-0.873125 h -0.09525 q 0.03175,0.269875 0.0635,0.682625 0.03175,0.41275 0.03175,0.714375 v 3.4925 h -1.397 V 6.6353748 h 1.143 l 0.1905,1.158875 h 0.0635 q 0.381,-0.555625 1.000125,-0.936625 0.619125,-0.381 1.651,-0.381 z m -0.254,1.17475 q -1.30175,0 -1.8415,0.73025 -0.523875,0.73025 -0.555625,2.2225002 V 10.874 q 0,1.571625 0.508,2.428875 0.523875,0.841375 1.920875,0.841375 0.777875,0 1.27,-0.428625 0.508,-0.428625 0.746125,-1.158875 0.254,-0.746125 0.254,-1.698625 0,-1.4605002 -0.5715,-2.3336252 -0.555625,-0.873125 -1.730375,-0.873125 z"
         style="font-family:sans-serif;-inkscape-font-specification:'sans-serif, Normal';stroke:none;stroke-width:5"
         id="path4987" />
      <path
         d="m 54.038111,6.4766248 q 1.571625,0 2.524125,1.095375 0.968375,1.095375 0.968375,3.3020002 0,2.174875 -0.968375,3.302 -0.9525,1.127125 -2.54,1.127125 -0.98425,0 -1.635125,-0.365125 -0.635,-0.381 -1.000125,-0.873125 h -0.09525 q 0.03175,0.269875 0.0635,0.682625 0.03175,0.41275 0.03175,0.714375 v 3.4925 h -1.397 V 6.6353748 h 1.143 l 0.1905,1.158875 h 0.0635 q 0.381,-0.555625 1.000125,-0.936625 0.619125,-0.381 1.651,-0.381 z m -0.254,1.17475 q -1.30175,0 -1.8415,0.73025 -0.523875,0.73025 -0.555625,2.2225002 V 10.874 q 0,1.571625 0.508,2.428875 0.523875,0.841375 1.920875,0.841375 0.777875,0 1.27,-0.428625 0.508,-0.428625 0.746125,-1.158875 0.254,-0.746125 0.254,-1.698625 0,-1.4605002 -0.5715,-2.3336252 -0.555625,-0.873125 -1.730375,-0.873125 z"
         style="font-family:sans-serif;-inkscape-font-specification:'sans-serif, Normal';stroke:none;stroke-width:5"
         id="path4989" />
      <path
         d="m 71.754609,9.4769998 q 0,0.7302502 -0.174625,1.4287502 -0.15875,0.6985 -0.508,1.27 -0.34925,0.555625 -0.85725,0.904875 -0.508,0.333375 -1.2065,0.333375 -0.73025,0 -1.158875,-0.41275 -0.41275,-0.428625 -0.508,-0.968375 h -0.07937 q -0.28575,0.587375 -0.841375,0.98425 -0.555625,0.396875 -1.397,0.396875 -1.2065,0 -1.87325,-0.809625 -0.650875,-0.809625 -0.650875,-2.143125 0,-1.0477502 0.41275,-1.8415002 0.41275,-0.809625 1.158875,-1.27 0.762,-0.460375 1.793875,-0.460375 0.6985,0 1.36525,0.127 0.682625,0.111125 1.063625,0.254 L 68.135109,10.493 q -0.01587,0.28575 -0.01587,0.41275 0,0.111125 0,0.15875 0,0.8255 0.28575,1.095375 0.301625,0.269875 0.6985,0.269875 0.492125,0 0.8255,-0.396875 0.34925,-0.41275 0.523875,-1.0795 0.1905,-0.682625 0.1905,-1.4922502 0,-1.476375 -0.60325,-2.492375 -0.587375,-1.031875 -1.635125,-1.571625 -1.031875,-0.53975 -2.3495,-0.53975 -1.80975,0 -3.063875,0.746125 -1.23825,0.746125 -1.889125,2.06375 -0.635,1.30175 -0.635,2.9845002 0,2.3495 1.23825,3.603625 1.23825,1.254125 3.571875,1.254125 0.968375,0 1.8415,-0.22225 0.889,-0.206375 1.571625,-0.460375 v 1.0795 q -0.682625,0.28575 -1.539875,0.460375 -0.841375,0.1905 -1.87325,0.1905 -1.87325,0 -3.20675,-0.6985 -1.3335,-0.6985 -2.047875,-2.00025 -0.6985,-1.317625 -0.6985,-3.159125 0,-1.4763752 0.460375,-2.7305002 0.460375,-1.27 1.3335,-2.19075 0.873125,-0.936625 2.111375,-1.444625 1.254125,-0.523875 2.82575,-0.523875 1.651,0 2.936875,0.682625 1.285875,0.682625 2.016125,1.952625 0.746125,1.27 0.746125,3.032125 z M 63.737734,10.493 q 0,1.016 0.396875,1.476375 0.41275,0.460375 1.095375,0.460375 0.889,0 1.27,-0.66675 0.396875,-0.66675 0.460375,-1.730375 l 0.09525,-1.9843752 q -0.206375,-0.0635 -0.523875,-0.111125 -0.3175,-0.047625 -0.650875,-0.047625 -0.777875,0 -1.254125,0.381 -0.47625,0.381 -0.682625,0.98425 -0.206375,0.587375 -0.206375,1.2382502 z"
         style="font-family:sans-serif;-inkscape-font-specification:'sans-serif, Normal';stroke:none;stroke-width:5"
         id="path4991" />
      <path
         d="m 74.739109,3.4444998 q 0.3175,0 0.555625,0.22225 0.254,0.206375 0.254,0.66675 0,0.4445 -0.254,0.66675 -0.238125,0.22225 -0.555625,0.22225 -0.34925,0 -0.587375,-0.22225 -0.238125,-0.22225 -0.238125,-0.66675 0,-0.460375 0.238125,-0.66675 0.238125,-0.22225 0.587375,-0.22225 z m 0.682625,3.190875 v 8.5090002 h -1.397 V 6.6353748 Z"
         style="font-family:sans-serif;-inkscape-font-specification:'sans-serif, Normal';stroke:none;stroke-width:5"
         id="path4993" />
      <path
         d="m 82.216226,6.4766248 q 1.524,0 2.301875,0.746125 0.777875,0.73025 0.777875,2.38125 V 15.144375 H 83.914851 V 9.6992498 q 0,-2.047875 -1.905,-2.047875 -1.412875,0 -1.952625,0.79375 -0.53975,0.79375 -0.53975,2.2860002 v 4.41325 h -1.397 V 6.6353748 h 1.127125 l 0.206375,1.158875 h 0.07937 q 0.41275,-0.66675 1.143,-0.98425 0.73025,-0.333375 1.539875,-0.333375 z"
         style="font-family:sans-serif;-inkscape-font-specification:'sans-serif, Normal';stroke:none;stroke-width:5"
         id="path4995" />
      <path
         d="m 91.852354,7.7148748 h -2.143125 v 7.4295002 h -1.397 V 7.7148748 h -1.49225 v -0.650875 l 1.49225,-0.47625 v -0.492125 q 0,-1.651 0.73025,-2.365375 0.73025,-0.73025 2.032,-0.73025 0.508,0 0.92075,0.09525 0.428625,0.079375 0.73025,0.1905 l -0.365125,1.095375 q -0.254,-0.079375 -0.587375,-0.15875 -0.333375,-0.079375 -0.682625,-0.079375 -0.6985,0 -1.04775,0.47625 -0.333375,0.460375 -0.333375,1.4605 v 0.555625 h 2.143125 z"
         style="font-family:sans-serif;-inkscape-font-specification:'sans-serif, Normal';stroke:none;stroke-width:5"
         id="path4997" />
      <path
         d="m 100.78998,10.874 q 0,2.111375 -1.079503,3.27025 -1.063625,1.158875 -2.88925,1.158875 -1.127125,0 -2.016125,-0.508 -0.873125,-0.523875 -1.381125,-1.508125 -0.508,-1.000125 -0.508,-2.413 0,-2.1113752 1.063625,-3.2543752 1.063625,-1.143 2.88925,-1.143 1.158875,0 2.032,0.523875 0.889,0.508 1.381128,1.49225 0.508,0.968375 0.508,2.3812502 z m -6.429378,0 q 0,1.508125 0.587375,2.397125 0.60325,0.873125 1.905,0.873125 1.285875,0 1.889125,-0.873125 0.60325,-0.889 0.60325,-2.397125 0,-1.5081252 -0.60325,-2.3653752 -0.60325,-0.85725 -1.905,-0.85725 -1.30175,0 -1.889125,0.85725 -0.587375,0.85725 -0.587375,2.3653752 z"
         style="font-family:sans-serif;-inkscape-font-specification:'sans-serif, Normal';stroke:none;stroke-width:5"
         id="path4999" />
      <path
         d="m 106.96535,6.4766248 q 0.23812,0 0.508,0.03175 0.28575,0.015875 0.49212,0.0635 l -0.17462,1.285875 q -0.20638,-0.047625 -0.46038,-0.079375 -0.23812,-0.03175 -0.46037,-0.03175 -0.65088,0 -1.22238,0.365125 -0.5715,0.34925 -0.92075,1.000125 -0.33337,0.635 -0.33337,1.4922502 v 4.54025 h -1.397 V 6.6353748 h 1.143 l 0.15875,1.55575 h 0.0635 q 0.41275,-0.6985 1.06362,-1.2065 0.65088,-0.508 1.53988,-0.508 z"
         style="font-family:sans-serif;-inkscape-font-specification:'sans-serif, Normal';stroke:none;stroke-width:5"
         id="path5001" />
      <path
         d="m 118.88747,6.4766248 q 1.44463,0 2.159,0.746125 0.71438,0.73025 0.71438,2.38125 v 5.5403752 h -1.38113 V 9.6674998 q 0,-2.016125 -1.73037,-2.016125 -1.23825,0 -1.778,0.714375 -0.52388,0.714375 -0.52388,2.0796252 v 4.699 h -1.38112 V 9.6674998 q 0,-2.016125 -1.74625,-2.016125 -1.28588,0 -1.778,0.79375 -0.49213,0.79375 -0.49213,2.2860002 v 4.41325 h -1.397 V 6.6353748 h 1.12713 l 0.20637,1.158875 h 0.0794 q 0.39687,-0.66675 1.06362,-0.98425 0.68263,-0.333375 1.44463,-0.333375 2.00025,0 2.6035,1.42875 h 0.0794 q 0.42863,-0.73025 1.15888,-1.0795 0.74612,-0.34925 1.57162,-0.34925 z"
         style="font-family:sans-serif;-inkscape-font-specification:'sans-serif, Normal';stroke:none;stroke-width:5"
         id="path5003" />
      <path
         d="m 127.61871,6.4924998 q 1.55575,0 2.30188,0.682625 0.74612,0.682625 0.74612,2.174875 v 5.7943752 h -1.016 l -0.26987,-1.2065 h -0.0635 q -0.55563,0.6985 -1.17475,1.031875 -0.60325,0.333375 -1.68275,0.333375 -1.15888,0 -1.92088,-0.60325 -0.762,-0.619125 -0.762,-1.920875 0,-1.27 1.00013,-1.952625 1.00012,-0.6985 3.07975,-0.762 l 1.44462,-0.04763 V 9.5087498 q 0,-1.063625 -0.46037,-1.476375 -0.46038,-0.41275 -1.30175,-0.41275 -0.66675,0 -1.27,0.206375 -0.60325,0.1905 -1.12713,0.4445 l -0.42862,-1.04775 q 0.55562,-0.301625 1.31762,-0.508 0.762,-0.22225 1.5875,-0.22225 z m 0.41275,4.5402502 q -1.5875,0.0635 -2.20662,0.508 -0.60325,0.4445 -0.60325,1.254125 0,0.714375 0.42862,1.04775 0.4445,0.333375 1.12713,0.333375 1.0795,0 1.79387,-0.587375 0.71438,-0.60325 0.71438,-1.8415 v -0.762 z"
         style="font-family:sans-serif;-inkscape-font-specification:'sans-serif, Normal';stroke:none;stroke-width:5"
         id="path5005" />
      <path
         d="m 136.1436,14.160125 q 0.3175,0 0.65087,-0.04763 0.33338,-0.0635 0.53975,-0.127 v 1.063625 q -0.22225,0.111125 -0.635,0.174625 -0.41275,0.07937 -0.79375,0.07937 -0.66675,0 -1.23825,-0.22225 -0.55562,-0.238125 -0.90487,-0.809625 -0.34925,-0.5715 -0.34925,-1.603375 V 7.7148748 h -1.2065 v -0.66675 l 1.22237,-0.555625 0.55563,-1.80975 h 0.8255 v 1.952625 h 2.46062 v 1.0795 h -2.46062 v 4.9212502 q 0,0.777875 0.36512,1.158875 0.381,0.365125 0.96838,0.365125 z"
         style="font-family:sans-serif;-inkscape-font-specification:'sans-serif, Normal';stroke:none;stroke-width:5"
         id="path5007" />
      <path
         d="m 139.74723,3.4444998 q 0.3175,0 0.55562,0.22225 0.254,0.206375 0.254,0.66675 0,0.4445 -0.254,0.66675 -0.23812,0.22225 -0.55562,0.22225 -0.34925,0 -0.58738,-0.22225 -0.23812,-0.22225 -0.23812,-0.66675 0,-0.460375 0.23812,-0.66675 0.23813,-0.22225 0.58738,-0.22225 z m 0.68262,3.190875 v 8.5090002 h -1.397 V 6.6353748 Z"
         style="font-family:sans-serif;-inkscape-font-specification:'sans-serif, Normal';stroke:none;stroke-width:5"
         id="path5009" />
      <path
         d="m 144.50971,9.3817498 q 0,0.254 -0.0318,0.6667502 -0.0159,0.41275 -0.0317,0.714375 h 0.0635 q 0.0952,-0.127 0.28575,-0.365125 0.1905,-0.238125 0.381,-0.4762502 0.20638,-0.254 0.34925,-0.41275 l 2.71463,-2.873375 h 1.63512 l -3.44487,3.6353752 3.683,4.873625 h -1.68275 l -2.95275,-3.96875 -0.96838,0.841375 v 3.127375 h -1.38112 V 3.0793748 h 1.38112 z"
         style="font-family:sans-serif;-inkscape-font-specification:'sans-serif, Normal';stroke:none;stroke-width:5"
         id="path5011" />
      <path
         d="m 151.39948,14.287125 q 0,-0.587375 0.28575,-0.8255 0.28575,-0.238125 0.68262,-0.238125 0.41275,0 0.6985,0.238125 0.30163,0.238125 0.30163,0.8255 0,0.5715 -0.30163,0.8255 -0.28575,0.254 -0.6985,0.254 -0.39687,0 -0.68262,-0.254 -0.28575,-0.254 -0.28575,-0.8255 z"
         style="font-family:sans-serif;-inkscape-font-specification:'sans-serif, Normal';stroke:none;stroke-width:5"
         id="path5013" />
      <path
         d="m 162.97234,6.6353748 v 8.5090002 h -1.143 l -0.20638,-1.127125 h -0.0635 q -0.41275,0.66675 -1.143,0.98425 -0.73025,0.301625 -1.55575,0.301625 -1.53987,0 -2.31775,-0.73025 -0.77787,-0.746125 -0.77787,-2.365375 V 6.6353748 h 1.41287 V 12.11225 q 0,2.032 1.88913,2.032 1.41287,0 1.95262,-0.79375 0.55563,-0.79375 0.55563,-2.286 V 6.6353748 Z"
         style="font-family:sans-serif;-inkscape-font-specification:'sans-serif, Normal';stroke:none;stroke-width:5"
         id="path5015" />
      <path
         d="m 169.76685,6.4766248 q 1.524,0 2.30187,0.746125 0.77788,0.73025 0.77788,2.38125 v 5.5403752 h -1.38113 V 9.6992498 q 0,-2.047875 -1.905,-2.047875 -1.41287,0 -1.95262,0.79375 -0.53975,0.79375 -0.53975,2.2860002 v 4.41325 h -1.397 V 6.6353748 h 1.12712 l 0.20638,1.158875 h 0.0794 q 0.41275,-0.66675 1.143,-0.98425 0.73025,-0.333375 1.53988,-0.333375 z"
         style="font-family:sans-serif;-inkscape-font-specification:'sans-serif, Normal';stroke:none;stroke-width:5"
         id="path5017" />
      <path
         d="m 176.19622,3.4444998 q 0.3175,0 0.55562,0.22225 0.254,0.206375 0.254,0.66675 0,0.4445 -0.254,0.66675 -0.23812,0.22225 -0.55562,0.22225 -0.34925,0 -0.58738,-0.22225 -0.23812,-0.22225 -0.23812,-0.66675 0,-0.460375 0.23812,-0.66675 0.23813,-0.22225 0.58738,-0.22225 z m 0.68262,3.190875 v 8.5090002 h -1.397 V 6.6353748 Z"
         style="font-family:sans-serif;-inkscape-font-specification:'sans-serif, Normal';stroke:none;stroke-width:5"
         id="path5019" />
      <path
         d="m 178.86322,11.509 v -1.23825 h 3.84175 V 11.509 Z"
         style="font-family:sans-serif;-inkscape-font-specification:'sans-serif, Normal';stroke:none;stroke-width:5"
         id="path5021" />
      <path
         d="m 188.61047,7.7148748 h -2.14312 v 7.4295002 h -1.397 V 7.7148748 h -1.49225 v -0.650875 l 1.49225,-0.47625 v -0.492125 q 0,-1.651 0.73025,-2.365375 0.73025,-0.73025 2.032,-0.73025 0.508,0 0.92075,0.09525 0.42862,0.079375 0.73025,0.1905 l -0.36513,1.095375 q -0.254,-0.079375 -0.58737,-0.15875 -0.33338,-0.079375 -0.68263,-0.079375 -0.6985,0 -1.04775,0.47625 -0.33337,0.460375 -0.33337,1.4605 v 0.555625 h 2.14312 z"
         style="font-family:sans-serif;-inkscape-font-specification:'sans-serif, Normal';stroke:none;stroke-width:5"
         id="path5023" />
      <path
         d="m 194.11909,6.4766248 q 0.23813,0 0.508,0.03175 0.28575,0.015875 0.49213,0.0635 l -0.17463,1.285875 q -0.20637,-0.047625 -0.46037,-0.079375 -0.23813,-0.03175 -0.46038,-0.03175 -0.65087,0 -1.22237,0.365125 -0.5715,0.34925 -0.92075,1.000125 -0.33338,0.635 -0.33338,1.4922502 v 4.54025 h -1.397 V 6.6353748 h 1.143 l 0.15875,1.55575 h 0.0635 q 0.41275,-0.6985 1.06363,-1.2065 0.65087,-0.508 1.53987,-0.508 z"
         style="font-family:sans-serif;-inkscape-font-specification:'sans-serif, Normal';stroke:none;stroke-width:5"
         id="path5025" />
      <path
         d="m 199.67533,6.4766248 q 1.09538,0 1.87325,0.47625 0.79375,0.47625 1.2065,1.349375 0.42863,0.85725 0.42863,2.0161252 v 0.841375 h -5.82613 q 0.0317,1.444625 0.73025,2.206625 0.71438,0.746125 1.98438,0.746125 0.80962,0 1.42875,-0.142875 0.635,-0.15875 1.30175,-0.4445 V 14.7475 q -0.65088,0.28575 -1.28588,0.41275 -0.635,0.142875 -1.50812,0.142875 -1.2065,0 -2.14313,-0.492125 -0.92075,-0.492125 -1.44462,-1.4605 -0.508,-0.98425 -0.508,-2.397125 0,-1.3970002 0.46037,-2.3971252 0.47625,-1.000125 1.31763,-1.539875 0.85725,-0.53975 1.98437,-0.53975 z m -0.0159,1.143 q -1.00013,0 -1.5875,0.650875 -0.5715,0.635 -0.68263,1.7780002 h 4.33388 q -0.0159,-1.0795002 -0.508,-1.7462502 -0.49213,-0.682625 -1.55575,-0.682625 z"
         style="font-family:sans-serif;-inkscape-font-specification:'sans-serif, Normal';stroke:none;stroke-width:5"
         id="path5027" />
      <path
         d="m 206.05707,3.4444998 q 0.3175,0 0.55563,0.22225 0.254,0.206375 0.254,0.66675 0,0.4445 -0.254,0.66675 -0.23813,0.22225 -0.55563,0.22225 -0.34925,0 -0.58737,-0.22225 -0.23813,-0.22225 -0.23813,-0.66675 0,-0.460375 0.23813,-0.66675 0.23812,-0.22225 0.58737,-0.22225 z m 0.68263,3.190875 v 8.5090002 h -1.397 V 6.6353748 Z"
         style="font-family:sans-serif;-inkscape-font-specification:'sans-serif, Normal';stroke:none;stroke-width:5"
         id="path5029" />
      <path
         d="m 210.83545,6.0162498 q 0,0.53975 -0.0318,1.016 -0.0159,0.460375 -0.0476,0.73025 h 0.0794 q 0.36512,-0.53975 1.00012,-0.904875 0.635,-0.365125 1.63513,-0.365125 1.5875,0 2.54,1.11125 0.96837,1.095375 0.96837,3.2861252 0,2.19075 -0.96837,3.302 -0.96838,1.11125 -2.54,1.11125 -1.00013,0 -1.63513,-0.365125 -0.635,-0.365125 -1.00012,-0.873125 h -0.11113 l -0.28575,1.0795 h -1.00012 V 3.0793748 h 1.397 z m 2.39712,1.635125 q -1.34937,0 -1.87325,0.777875 -0.52387,0.777875 -0.52387,2.4130002 v 0.0635 q 0,1.571625 0.508,2.413 0.52387,0.8255 1.92087,0.8255 1.143,0 1.69863,-0.841375 0.5715,-0.841375 0.5715,-2.428875 0,-3.2226252 -2.30188,-3.2226252 z"
         style="font-family:sans-serif;-inkscape-font-specification:'sans-serif, Normal';stroke:none;stroke-width:5"
         id="path5031" />
      <path
         d="m 226.31355,6.6353748 v 8.5090002 h -1.143 l -0.20637,-1.127125 h -0.0635 q -0.41275,0.66675 -1.143,0.98425 -0.73025,0.301625 -1.55575,0.301625 -1.53988,0 -2.31775,-0.73025 Q 219.1063,13.82675 219.1063,12.2075 V 6.6353748 h 1.41288 V 12.11225 q 0,2.032 1.88912,2.032 1.41288,0 1.95263,-0.79375 0.55562,-0.79375 0.55562,-2.286 V 6.6353748 Z"
         style="font-family:sans-serif;-inkscape-font-specification:'sans-serif, Normal';stroke:none;stroke-width:5"
         id="path5033" />
      <path
         d="m 232.98106,6.4766248 q 0.23813,0 0.508,0.03175 0.28575,0.015875 0.49213,0.0635 l -0.17463,1.285875 q -0.20637,-0.047625 -0.46037,-0.079375 -0.23813,-0.03175 -0.46038,-0.03175 -0.65087,0 -1.22237,0.365125 -0.5715,0.34925 -0.92075,1.000125 -0.33338,0.635 -0.33338,1.4922502 v 4.54025 h -1.397 V 6.6353748 h 1.143 l 0.15875,1.55575 h 0.0635 q 0.41275,-0.6985 1.06363,-1.2065 0.65087,-0.508 1.53987,-0.508 z"
         style="font-family:sans-serif;-inkscape-font-specification:'sans-serif, Normal';stroke:none;stroke-width:5"
         id="path5035" />
      <path
         d="m 238.42618,6.4766248 q 0.84137,0 1.50812,0.3175 0.68263,0.3175 1.15888,0.968375 h 0.0794 l 0.1905,-1.127125 h 1.11125 V 15.28725 q 0,1.825625 -0.93662,2.746375 -0.92075,0.92075 -2.87338,0.92075 -1.87325,0 -3.06387,-0.53975 V 17.12875 q 1.25412,0.66675 3.14325,0.66675 1.09537,0 1.7145,-0.650875 0.635,-0.635 0.635,-1.74625 V 15.065 q 0,-0.1905 0.0159,-0.53975 0.0159,-0.365125 0.0318,-0.508 h -0.0635 q -0.85725,1.285875 -2.63525,1.285875 -1.651,0 -2.58762,-1.158875 -0.92075,-1.158875 -0.92075,-3.2385 0,-2.0320002 0.92075,-3.2226252 0.93662,-1.2065 2.57175,-1.2065 z m 0.1905,1.17475 q -1.06363,0 -1.651,0.85725 -0.58738,0.841375 -0.58738,2.4130002 0,1.571625 0.5715,2.413 0.58738,0.8255 1.69863,0.8255 1.28587,0 1.87325,-0.682625 0.58737,-0.6985 0.58737,-2.238375 V 10.90575 q 0,-1.7462502 -0.60325,-2.4923752 -0.60325,-0.762 -1.88912,-0.762 z"
         style="font-family:sans-serif;-inkscape-font-specification:'sans-serif, Normal';stroke:none;stroke-width:5"
         id="path5037" />
      <path
         d="m 244.96667,14.287125 q 0,-0.587375 0.28575,-0.8255 0.28575,-0.238125 0.68263,-0.238125 0.41275,0 0.6985,0.238125 0.30162,0.238125 0.30162,0.8255 0,0.5715 -0.30162,0.8255 -0.28575,0.254 -0.6985,0.254 -0.39688,0 -0.68263,-0.254 -0.28575,-0.254 -0.28575,-0.8255 z"
         style="font-family:sans-serif;-inkscape-font-specification:'sans-serif, Normal';stroke:none;stroke-width:5"
         id="path5039" />
      <path
         d="m 252.4438,15.303125 q -1.5875,0 -2.54,-1.095375 -0.9525,-1.11125 -0.9525,-3.302 0,-2.1907502 0.9525,-3.3020002 0.96838,-1.127125 2.55588,-1.127125 0.98425,0 1.60337,0.365125 0.635,0.365125 1.03188,0.889 h 0.0952 q -0.0159,-0.206375 -0.0635,-0.60325 -0.0317,-0.41275 -0.0317,-0.650875 v -3.39725 h 1.397 V 15.144375 h -1.12713 l -0.20637,-1.143 h -0.0635 q -0.381,0.53975 -1.016,0.92075 -0.635,0.381 -1.63513,0.381 z m 0.22225,-1.158875 q 1.34938,0 1.88913,-0.73025 0.55562,-0.746125 0.55562,-2.238375 v -0.254 q 0,-1.5875002 -0.52387,-2.4288752 -0.52388,-0.85725 -1.93675,-0.85725 -1.12713,0 -1.69863,0.904875 -0.55562,0.889 -0.55562,2.3971252 0,1.524 0.55562,2.365375 0.5715,0.841375 1.7145,0.841375 z"
         style="font-family:sans-serif;-inkscape-font-specification:'sans-serif, Normal';stroke:none;stroke-width:5"
         id="path5041" />
      <path
         d="m 262.4768,6.4766248 q 1.09537,0 1.87325,0.47625 0.79375,0.47625 1.2065,1.349375 0.42862,0.85725 0.42862,2.0161252 v 0.841375 h -5.82612 q 0.0318,1.444625 0.73025,2.206625 0.71437,0.746125 1.98437,0.746125 0.80963,0 1.42875,-0.142875 0.635,-0.15875 1.30175,-0.4445 V 14.7475 q -0.65087,0.28575 -1.28587,0.41275 -0.635,0.142875 -1.50813,0.142875 -1.2065,0 -2.14312,-0.492125 -0.92075,-0.492125 -1.44463,-1.4605 -0.508,-0.98425 -0.508,-2.397125 0,-1.3970002 0.46038,-2.3971252 0.47625,-1.000125 1.31762,-1.539875 0.85725,-0.53975 1.98438,-0.53975 z m -0.0159,1.143 q -1.00012,0 -1.5875,0.650875 -0.5715,0.635 -0.68262,1.7780002 h 4.33387 q -0.0159,-1.0795002 -0.508,-1.7462502 -0.49212,-0.682625 -1.55575,-0.682625 z"
         style="font-family:sans-serif;-inkscape-font-specification:'sans-serif, Normal';stroke:none;stroke-width:5"
         id="path5043" />
    </g>
  </g>
</svg>
