<svg xmlns="http://www.w3.org/2000/svg" viewBox="0 0 50 50"><path d="M26 3V1h-2v2H1v2h2v26H1v2h19.471L14 47.791V49h2v-.791L22.654 33H24v16h2V33h1.346L34 48.209V49h2v-1.209L29.529 33H49v-2h-2V5h2V3H26zm19 28H5V5h40v26z"/><path d="M16 28c4.411 0 8-3.589 8-8v-1h-7v-7h-1c-4.411 0-8 3.589-8 8s3.589 8 8 8zm-1-13.917V21h6.917A6.01 6.01 0 0 1 16 26c-3.309 0-6-2.691-6-6a6.01 6.01 0 0 1 5-5.917z"/><path d="M28 16c0-4.411-3.589-8-8-8h-1v9h9v-1zm-7-1v-4.917A6.016 6.016 0 0 1 25.917 15H21zM31 10h10v2H31zM31 15h10v2H31zM31 20h10v2H31z"/></svg>