<svg xmlns="http://www.w3.org/2000/svg" width="32" height="32"><path d="M9 0a3 3 0 0 0-3 3 3 3 0 0 0 3 3 3 3 0 0 0 3-3 3 3 0 0 0-3-3zm6.5 1a.5.5 0 0 0-.5.5v4.813c.355.135.691.306 1 .519V2h13v11H18v1h11.5a.5.5 0 0 0 .5-.5v-12a.5.5 0 0 0-.5-.5h-14zm2 2a.5.5 0 1 0 0 1h10a.5.5 0 1 0 0-1h-10zm0 2a.5.5 0 1 0 0 1h10a.5.5 0 1 0 0-1h-10zm-13 2C2.57 7 1 8.586 1 10.516V17.5a1.5 1.5 0 0 0 3 0v-6.984c0-.276.224-.516.5-.516H5v20.5a1.5 1.5 0 0 0 3 0V23h2v7.5a1.5 1.5 0 0 0 3 0V10h.375c.298 0 .625.27.625.516V17a1.5 1.5 0 0 0 3 0v-6.484C17 8.61 15.34 7 13.375 7H4.5zm13 0a.5.5 0 1 0 0 1h10a.5.5 0 1 0 0-1h-10zm.203 2c.122.32.2.654.242 1H21.5a.5.5 0 1 0 0-1h-3.797z"/></svg>